# xmcd
#
# Track frame offsets:
#	150
#	15850
#	31015
#	48292
#	62620
#	77847
#	92622
#	114040
#	126487
#	142267
#
# Disc length: 2054 seconds
#
# Revision: 0
# Processed by: cddbd v1.4PL0 Copyright (c) Steve Scherf et al.
# Submitted via: dBpowerAMP V4.0
#
DISCID=7408040a
DTITLE=Various Artist - This is Country '99
DYEAR=1900
DGENRE=Country
TTITLE0=Kathy Mattea - Walking Away A Winner
TTITLE1=Sammy Kershaw - Third Rate Romance
TTITLE2=Toby Keith - Does That Blue Moon Ever Shine On You
TTITLE3=Terri Clark - Poor, Poor Pitiful Me
TTITLE4=Bryan White - Someone Else's Star
TTITLE5=Ricochet - He Left A Lot To Be Desired
TTITLE6=Raybon Brothers - Butterfly Kisses
TTITLE7=Shania Twain - God Ain't Gonna Get You For That
TTITLE8=Lee Roy Parnell - Givin' Water To A Drowning Man
TTITLE9=Junior Brown - Venom Wearin' Denim
EXTD=Manufactured by PolyMedia, a division of PolyGram Group Distribution, Inc.
EXTT0=
EXTT1=
EXTT2=
EXTT3=
EXTT4=
EXTT5=
EXTT6=
EXTT7=
EXTT8=
EXTT9=
PLAYORDER=
